{
    "asset" : {
        "generator" : "Khronos glTF Blender I/O v1.1.45",
        "version" : "2.0"
    },
    "scene" : 0,
    "scenes" : [
        {
            "name" : "Scene",
            "nodes" : [
                3
            ]
        }
    ],
    "nodes" : [
        {
            "mesh" : 0,
            "name" : "node_MeshObject-858259456-PolyPaper15",
            "scale" : [
                1.2000000476837158,
                1.2000000476837158,
                1.2000000476837158
            ],
            "translation" : [
                -1.8486087322235107,
                -0.3489074110984802,
                -0.4538727104663849
            ]
        },
        {
            "children" : [
                0
            ],
            "name" : "Node.002",
            "translation" : [
                0.8184618949890137,
                0.3533305525779724,
                1.290056824684143
            ]
        },
        {
            "children" : [
                1
            ],
            "name" : "Node.001",
            "rotation" : [
                0,
                0,
                0,
                0
            ]
        },
        {
            "children" : [
                2
            ],
            "name" : "Node",
            "rotation" : [
                0.7071068286895752,
                0,
                0,
                0.7071067094802856
            ],
            "scale" : [
                5,
                5,
                5
            ]
        }
    ],
    "materials" : [
        {
            "emissiveFactor" : [
                0,
                0,
                0
            ],
            "name" : "BlocksPaper_COLOR_0",
            "pbrMetallicRoughness" : {
                "metallicFactor" : 0,
                "roughnessFactor" : 0.6000000238418579
            }
        }
    ],
    "meshes" : [
        {
            "name" : "mesh_m0-PolyPaper15_-585892",
            "primitives" : [
                {
                    "attributes" : {
                        "POSITION" : 0,
                        "NORMAL" : 1,
                        "COLOR_0" : 2
                    },
                    "indices" : 3,
                    "material" : 0
                }
            ]
        }
    ],
    "accessors" : [
        {
            "bufferView" : 0,
            "componentType" : 5126,
            "count" : 6564,
            "max" : [
                -0.717073380947113,
                -0.21495823562145233,
                -1.0771957635879517
            ],
            "min" : [
                -0.9173961877822876,
                -0.4941307306289673,
                -1.5045729875564575
            ],
            "type" : "VEC3"
        },
        {
            "bufferView" : 1,
            "componentType" : 5126,
            "count" : 6564,
            "type" : "VEC3"
        },
        {
            "bufferView" : 2,
            "componentType" : 5126,
            "count" : 6564,
            "type" : "VEC4"
        },
        {
            "bufferView" : 3,
            "componentType" : 5123,
            "count" : 6564,
            "type" : "SCALAR"
        }
    ],
    "bufferViews" : [
        {
            "buffer" : 0,
            "byteLength" : 78768,
            "byteOffset" : 0
        },
        {
            "buffer" : 0,
            "byteLength" : 78768,
            "byteOffset" : 78768
        },
        {
            "buffer" : 0,
            "byteLength" : 105024,
            "byteOffset" : 157536
        },
        {
            "buffer" : 0,
            "byteLength" : 13128,
            "byteOffset" : 262560
        }
    ],
    "buffers" : [
        {
            "byteLength" : 275688,
            "uri" : "data:application/octet-stream;base64,"
        }
    ]
}
