{
    "asset" : {
        "generator" : "Khronos glTF Blender I/O v1.1.45",
        "version" : "2.0"
    },
    "scene" : 0,
    "scenes" : [
        {
            "name" : "Scene",
            "nodes" : [
                3
            ]
        }
    ],
    "nodes" : [
        {
            "mesh" : 0,
            "name" : "node_MeshObject1984011904-PolyPaper17"
        },
        {
            "children" : [
                0
            ],
            "name" : "Node.002",
            "translation" : [
                -0.408161997795105,
                -1.3744089603424072,
                1.0756961107254028
            ]
        },
        {
            "children" : [
                1
            ],
            "name" : "Node.001",
            "translation" : [
                0.408161997795105,
                1.3744089603424072,
                -1.0756961107254028
            ]
        },
        {
            "children" : [
                2
            ],
            "name" : "Node",
            "rotation" : [
                0.7071068286895752,
                0,
                0,
                0.7071067094802856
            ]
        }
    ],
    "materials" : [
        {
            "emissiveFactor" : [
                0,
                0,
                0
            ],
            "name" : "BlocksPaper_COLOR_0",
            "pbrMetallicRoughness" : {
                "metallicFactor" : 0,
                "roughnessFactor" : 0.6000000238418579
            }
        }
    ],
    "meshes" : [
        {
            "name" : "mesh_m0-PolyPaper17_-247502",
            "primitives" : [
                {
                    "attributes" : {
                        "POSITION" : 0,
                        "NORMAL" : 1,
                        "COLOR_0" : 2
                    },
                    "indices" : 3,
                    "material" : 0
                }
            ]
        }
    ],
    "accessors" : [
        {
            "bufferView" : 0,
            "componentType" : 5126,
            "count" : 3706,
            "max" : [
                0.720001757144928,
                2.719120979309082,
                -0.7750349044799805
            ],
            "min" : [
                0.10997221618890762,
                -0.010879749432206154,
                -1.3900072574615479
            ],
            "type" : "VEC3"
        },
        {
            "bufferView" : 1,
            "componentType" : 5126,
            "count" : 3706,
            "type" : "VEC3"
        },
        {
            "bufferView" : 2,
            "componentType" : 5126,
            "count" : 3706,
            "type" : "VEC4"
        },
        {
            "bufferView" : 3,
            "componentType" : 5123,
            "count" : 4068,
            "type" : "SCALAR"
        }
    ],
    "bufferViews" : [
        {
            "buffer" : 0,
            "byteLength" : 44472,
            "byteOffset" : 0
        },
        {
            "buffer" : 0,
            "byteLength" : 44472,
            "byteOffset" : 44472
        },
        {
            "buffer" : 0,
            "byteLength" : 59296,
            "byteOffset" : 88944
        },
        {
            "buffer" : 0,
            "byteLength" : 8136,
            "byteOffset" : 148240
        }
    ],
    "buffers" : [
        {
            "byteLength" : 156376,
            "uri" : "data:application/octet-stream;base64,"
        }
    ]
}
