{
    "asset" : {
        "generator" : "Khronos glTF Blender I/O v1.1.45",
        "version" : "2.0"
    },
    "scene" : 0,
    "scenes" : [
        {
            "name" : "Scene",
            "nodes" : [
                3
            ]
        }
    ],
    "nodes" : [
        {
            "mesh" : 0,
            "name" : "node-0"
        },
        {
            "children" : [
                0
            ],
            "name" : "Node.002",
            "translation" : [
                0.0516248419880867,
                -0.10909679532051086,
                12.139819145202637
            ]
        },
        {
            "children" : [
                1
            ],
            "name" : "Node.001",
            "translation" : [
                -0.0516248419880867,
                0.10909679532051086,
                -12.139819145202637
            ]
        },
        {
            "children" : [
                2
            ],
            "name" : "Node",
            "rotation" : [
                0.7071068286895752,
                0,
                0,
                0.7071067094802856
            ]
        }
    ],
    "materials" : [
        {
            "doubleSided" : true,
            "emissiveFactor" : [
                0,
                0,
                0
            ],
            "name" : "Mat",
            "pbrMetallicRoughness" : {
                "baseColorTexture" : {
                    "index" : 0,
                    "texCoord" : 0
                },
                "metallicFactor" : 0,
                "roughnessFactor" : 0.9699476361274719
            }
        }
    ],
    "meshes" : [
        {
            "name" : "buffer-0-mesh-0.001",
            "primitives" : [
                {
                    "attributes" : {
                        "POSITION" : 0,
                        "NORMAL" : 1,
                        "TEXCOORD_0" : 2
                    },
                    "indices" : 3,
                    "material" : 0
                }
            ]
        }
    ],
    "textures" : [
        {
            "source" : 0
        }
    ],
    "images" : [
        {
            "bufferView" : 4,
            "mimeType" : "image/png",
            "name" : "1330_Google Cardboard"
        }
    ],
    "accessors" : [
        {
            "bufferView" : 0,
            "componentType" : 5126,
            "count" : 3240,
            "max" : [
                12.698101043701172,
                21.819358825683594,
                -0.0001900000061141327
            ],
            "min" : [
                -12.698101043701172,
                -21.819358825683594,
                -24.69481086730957
            ],
            "type" : "VEC3"
        },
        {
            "bufferView" : 1,
            "componentType" : 5126,
            "count" : 3240,
            "type" : "VEC3"
        },
        {
            "bufferView" : 2,
            "componentType" : 5126,
            "count" : 3240,
            "type" : "VEC2"
        },
        {
            "bufferView" : 3,
            "componentType" : 5123,
            "count" : 3240,
            "type" : "SCALAR"
        }
    ],
    "bufferViews" : [
        {
            "buffer" : 0,
            "byteLength" : 38880,
            "byteOffset" : 0
        },
        {
            "buffer" : 0,
            "byteLength" : 38880,
            "byteOffset" : 38880
        },
        {
            "buffer" : 0,
            "byteLength" : 25920,
            "byteOffset" : 77760
        },
        {
            "buffer" : 0,
            "byteLength" : 6480,
            "byteOffset" : 103680
        },
        {
            "buffer" : 0,
            "byteLength" : 570,
            "byteOffset" : 110160
        }
    ],
    "buffers" : [
        {
            "byteLength" : 110732,
            "uri" : "data:application/octet-stream;base64,"
        }
    ]
}
