{
    "asset" : {
        "generator" : "Khronos glTF Blender I/O v1.1.45",
        "version" : "2.0"
    },
    "scene" : 0,
    "scenes" : [
        {
            "name" : "Scene",
            "nodes" : [
                3
            ]
        }
    ],
    "nodes" : [
        {
            "mesh" : 0,
            "name" : "node-0"
        },
        {
            "children" : [
                0
            ],
            "name" : "Node.002",
            "translation" : [
                0.6236422061920166,
                -146.12460327148438,
                -15.825888633728027
            ]
        },
        {
            "children" : [
                1
            ],
            "name" : "Node.001",
            "rotation" : [
                0,
                0.7071068286895752,
                -0.7071068286895752,
                -1.1102231569740545e-16
            ],
            "translation" : [
                -0.6236422061920166,
                146.12460327148438,
                15.825888633728027
            ]
        },
        {
            "children" : [
                2
            ],
            "name" : "Node",
            "rotation" : [
                0.7071068286895752,
                0,
                0,
                0.7071067094802856
            ],
            "translation" : [
                -6.589999675750732,
                0,
                -149.55999755859375
            ]
        }
    ],
    "materials" : [
        {
            "doubleSided" : true,
            "emissiveFactor" : [
                0,
                0,
                0
            ],
            "name" : "blinn5SG.001",
            "pbrMetallicRoughness" : {
                "baseColorFactor" : [
                    0.009999999776482582,
                    0.009999999776482582,
                    0.009999999776482582,
                    1
                ],
                "metallicFactor" : 0,
                "roughnessFactor" : 0.9699476361274719
            }
        },
        {
            "doubleSided" : true,
            "emissiveFactor" : [
                0,
                0,
                0
            ],
            "name" : "blinn3SG.001",
            "pbrMetallicRoughness" : {
                "baseColorFactor" : [
                    0.3400000035762787,
                    0.3400000035762787,
                    0.3400000035762787,
                    1
                ],
                "metallicFactor" : 0,
                "roughnessFactor" : 0.9699476361274719
            }
        }
    ],
    "meshes" : [
        {
            "name" : "buffer-0-mesh-0.003",
            "primitives" : [
                {
                    "attributes" : {
                        "POSITION" : 0,
                        "NORMAL" : 1,
                        "TEXCOORD_0" : 2
                    },
                    "indices" : 3,
                    "material" : 0
                },
                {
                    "attributes" : {
                        "POSITION" : 4,
                        "NORMAL" : 5,
                        "TEXCOORD_0" : 6
                    },
                    "indices" : 7,
                    "material" : 1
                }
            ]
        }
    ],
    "accessors" : [
        {
            "bufferView" : 0,
            "componentType" : 5126,
            "count" : 294,
            "max" : [
                207.12205505371094,
                259.09478759765625,
                52.45868682861328
            ],
            "min" : [
                -207.12205505371094,
                -0.33722299337387085,
                -11.612510681152344
            ],
            "type" : "VEC3"
        },
        {
            "bufferView" : 1,
            "componentType" : 5126,
            "count" : 294,
            "type" : "VEC3"
        },
        {
            "bufferView" : 2,
            "componentType" : 5126,
            "count" : 294,
            "type" : "VEC2"
        },
        {
            "bufferView" : 3,
            "componentType" : 5123,
            "count" : 294,
            "type" : "SCALAR"
        },
        {
            "bufferView" : 4,
            "componentType" : 5126,
            "count" : 6,
            "max" : [
                5.9886322021484375,
                47.62040710449219,
                -11.612510681152344
            ],
            "min" : [
                -16.364822387695312,
                43.184417724609375,
                -11.612510681152344
            ],
            "type" : "VEC3"
        },
        {
            "bufferView" : 5,
            "componentType" : 5126,
            "count" : 6,
            "type" : "VEC3"
        },
        {
            "bufferView" : 6,
            "componentType" : 5126,
            "count" : 6,
            "type" : "VEC2"
        },
        {
            "bufferView" : 7,
            "componentType" : 5123,
            "count" : 6,
            "type" : "SCALAR"
        }
    ],
    "bufferViews" : [
        {
            "buffer" : 0,
            "byteLength" : 3528,
            "byteOffset" : 0
        },
        {
            "buffer" : 0,
            "byteLength" : 3528,
            "byteOffset" : 3528
        },
        {
            "buffer" : 0,
            "byteLength" : 2352,
            "byteOffset" : 7056
        },
        {
            "buffer" : 0,
            "byteLength" : 588,
            "byteOffset" : 9408
        },
        {
            "buffer" : 0,
            "byteLength" : 72,
            "byteOffset" : 9996
        },
        {
            "buffer" : 0,
            "byteLength" : 72,
            "byteOffset" : 10068
        },
        {
            "buffer" : 0,
            "byteLength" : 48,
            "byteOffset" : 10140
        },
        {
            "buffer" : 0,
            "byteLength" : 12,
            "byteOffset" : 10188
        }
    ],
    "buffers" : [
        {
            "byteLength" : 10200,
            "uri" : "data:application/octet-stream;base64,"
        }
    ]
}
