{
    "asset" : {
        "generator" : "Khronos glTF Blender I/O v1.1.45",
        "version" : "2.0"
    },
    "scene" : 0,
    "scenes" : [
        {
            "name" : "Scene",
            "nodes" : [
                3
            ]
        }
    ],
    "nodes" : [
        {
            "mesh" : 0,
            "name" : "node_MeshObject132132864-PolyPaper5"
        },
        {
            "children" : [
                0
            ],
            "name" : "Node.002",
            "translation" : [
                0.5470315217971802,
                0.794594407081604,
                -0.16098012030124664
            ]
        },
        {
            "children" : [
                1
            ],
            "name" : "Node.001",
            "translation" : [
                -0.5470315217971802,
                -0.794594407081604,
                0.16098012030124664
            ]
        },
        {
            "children" : [
                2
            ],
            "name" : "Node",
            "rotation" : [
                0.7071068286895752,
                0,
                0,
                0.7071067094802856
            ]
        }
    ],
    "materials" : [
        {
            "emissiveFactor" : [
                0,
                0,
                0
            ],
            "name" : "BlocksPaper_COLOR_0",
            "pbrMetallicRoughness" : {
                "metallicFactor" : 0,
                "roughnessFactor" : 0.6000000238418579
            }
        }
    ],
    "meshes" : [
        {
            "name" : "mesh_m0-PolyPaper5_-113628",
            "primitives" : [
                {
                    "attributes" : {
                        "POSITION" : 0,
                        "NORMAL" : 1,
                        "COLOR_0" : 2
                    },
                    "indices" : 3,
                    "material" : 0
                }
            ]
        }
    ],
    "accessors" : [
        {
            "bufferView" : 0,
            "componentType" : 5126,
            "count" : 1378,
            "max" : [
                -0.18996652960777283,
                -0.5582064390182495,
                0.2499101310968399
            ],
            "min" : [
                -0.8550898432731628,
                -1.0165703296661377,
                0.051222216337919235
            ],
            "type" : "VEC3"
        },
        {
            "bufferView" : 1,
            "componentType" : 5126,
            "count" : 1378,
            "type" : "VEC3"
        },
        {
            "bufferView" : 2,
            "componentType" : 5126,
            "count" : 1378,
            "type" : "VEC4"
        },
        {
            "bufferView" : 3,
            "componentType" : 5123,
            "count" : 1386,
            "type" : "SCALAR"
        }
    ],
    "bufferViews" : [
        {
            "buffer" : 0,
            "byteLength" : 16536,
            "byteOffset" : 0
        },
        {
            "buffer" : 0,
            "byteLength" : 16536,
            "byteOffset" : 16536
        },
        {
            "buffer" : 0,
            "byteLength" : 22048,
            "byteOffset" : 33072
        },
        {
            "buffer" : 0,
            "byteLength" : 2772,
            "byteOffset" : 55120
        }
    ],
    "buffers" : [
        {
            "byteLength" : 57892,
            "uri" : "data:application/octet-stream;base64,"
        }
    ]
}
