{
    "asset" : {
        "generator" : "Khronos glTF Blender I/O v1.1.45",
        "version" : "2.0"
    },
    "scene" : 0,
    "scenes" : [
        {
            "name" : "Scene",
            "nodes" : [
                4
            ]
        }
    ],
    "nodes" : [
        {
            "mesh" : 0,
            "name" : "node_MeshObject-34567168-PolyGlass24"
        },
        {
            "mesh" : 1,
            "name" : "node_MeshObject-606646272-PolyPaper21"
        },
        {
            "children" : [
                0,
                1
            ],
            "name" : "Node.002",
            "translation" : [
                -1.0877982378005981,
                0.38677987456321716,
                0.4079838991165161
            ]
        },
        {
            "children" : [
                2
            ],
            "name" : "Node.001",
            "translation" : [
                1.0877982378005981,
                -0.38677987456321716,
                -0.4079838991165161
            ]
        },
        {
            "children" : [
                3
            ],
            "name" : "Node",
            "rotation" : [
                0.7071068286895752,
                0,
                0,
                0.7071067094802856
            ]
        }
    ],
    "materials" : [
        {
            "alphaMode" : "BLEND",
            "emissiveFactor" : [
                0,
                0,
                0
            ],
            "name" : "BlocksGlass_COLOR_0",
            "pbrMetallicRoughness" : {
                "metallicFactor" : 1,
                "roughnessFactor" : 0.4000000059604645
            }
        },
        {
            "emissiveFactor" : [
                0,
                0,
                0
            ],
            "name" : "BlocksPaper_COLOR_0",
            "pbrMetallicRoughness" : {
                "metallicFactor" : 0,
                "roughnessFactor" : 0.6000000238418579
            }
        }
    ],
    "meshes" : [
        {
            "name" : "mesh_m1-PolyGlass24_-24984",
            "primitives" : [
                {
                    "attributes" : {
                        "POSITION" : 0,
                        "NORMAL" : 1,
                        "COLOR_0" : 2
                    },
                    "indices" : 3,
                    "material" : 0
                }
            ]
        },
        {
            "name" : "mesh_m0-PolyPaper21_-24978",
            "primitives" : [
                {
                    "attributes" : {
                        "POSITION" : 4,
                        "NORMAL" : 5,
                        "COLOR_0" : 6
                    },
                    "indices" : 7,
                    "material" : 1
                }
            ]
        }
    ],
    "accessors" : [
        {
            "bufferView" : 0,
            "componentType" : 5126,
            "count" : 146,
            "max" : [
                1.1723729372024536,
                -0.527666449546814,
                -0.8099899291992188
            ],
            "min" : [
                0.9875969290733337,
                -0.7124423980712891,
                -1.0978329181671143
            ],
            "type" : "VEC3"
        },
        {
            "bufferView" : 1,
            "componentType" : 5126,
            "count" : 146,
            "type" : "VEC3"
        },
        {
            "bufferView" : 2,
            "componentType" : 5126,
            "count" : 146,
            "type" : "VEC4"
        },
        {
            "bufferView" : 3,
            "componentType" : 5123,
            "count" : 162,
            "type" : "SCALAR"
        },
        {
            "bufferView" : 4,
            "componentType" : 5126,
            "count" : 3156,
            "max" : [
                1.3999849557876587,
                0.039945390075445175,
                0.2600105404853821
            ],
            "min" : [
                0.711941123008728,
                -0.8200558423995972,
                -1.0078330039978027
            ],
            "type" : "VEC3"
        },
        {
            "bufferView" : 5,
            "componentType" : 5126,
            "count" : 3156,
            "type" : "VEC3"
        },
        {
            "bufferView" : 6,
            "componentType" : 5126,
            "count" : 3156,
            "type" : "VEC4"
        },
        {
            "bufferView" : 7,
            "componentType" : 5123,
            "count" : 3198,
            "type" : "SCALAR"
        }
    ],
    "bufferViews" : [
        {
            "buffer" : 0,
            "byteLength" : 1752,
            "byteOffset" : 0
        },
        {
            "buffer" : 0,
            "byteLength" : 1752,
            "byteOffset" : 1752
        },
        {
            "buffer" : 0,
            "byteLength" : 2336,
            "byteOffset" : 3504
        },
        {
            "buffer" : 0,
            "byteLength" : 324,
            "byteOffset" : 5840
        },
        {
            "buffer" : 0,
            "byteLength" : 37872,
            "byteOffset" : 6164
        },
        {
            "buffer" : 0,
            "byteLength" : 37872,
            "byteOffset" : 44036
        },
        {
            "buffer" : 0,
            "byteLength" : 50496,
            "byteOffset" : 81908
        },
        {
            "buffer" : 0,
            "byteLength" : 6396,
            "byteOffset" : 132404
        }
    ],
    "buffers" : [
        {
            "byteLength" : 138800,
            "uri" : "data:application/octet-stream;base64,"
        }
    ]
}
