{
    "asset" : {
        "generator" : "Khronos glTF Blender I/O v1.1.45",
        "version" : "2.0"
    },
    "scene" : 0,
    "scenes" : [
        {
            "name" : "Scene",
            "nodes" : [
                3
            ]
        }
    ],
    "nodes" : [
        {
            "mesh" : 0,
            "name" : "node-0"
        },
        {
            "children" : [
                0
            ],
            "name" : "Node.002",
            "translation" : [
                0.008978965692222118,
                -0.3061133325099945,
                -0.014959401451051235
            ]
        },
        {
            "children" : [
                1
            ],
            "name" : "Node.001",
            "translation" : [
                -0.008978965692222118,
                0.3061133325099945,
                0.014959401451051235
            ]
        },
        {
            "children" : [
                2
            ],
            "name" : "Node",
            "rotation" : [
                0.7071068286895752,
                0,
                0,
                0.7071067094802856
            ]
        }
    ],
    "materials" : [
        {
            "doubleSided" : true,
            "emissiveFactor" : [
                0,
                0,
                0
            ],
            "name" : "mat21",
            "pbrMetallicRoughness" : {
                "baseColorFactor" : [
                    1,
                    1,
                    1,
                    1
                ],
                "metallicFactor" : 0,
                "roughnessFactor" : 0.9699476361274719
            }
        },
        {
            "doubleSided" : true,
            "emissiveFactor" : [
                0,
                0,
                0
            ],
            "name" : "mat15",
            "pbrMetallicRoughness" : {
                "baseColorFactor" : [
                    0.8100000023841858,
                    0.8500000238418579,
                    0.8600000143051147,
                    1
                ],
                "metallicFactor" : 0,
                "roughnessFactor" : 0.9699476361274719
            }
        }
    ],
    "meshes" : [
        {
            "name" : "buffer-0-mesh-0",
            "primitives" : [
                {
                    "attributes" : {
                        "POSITION" : 0,
                        "NORMAL" : 1,
                        "TEXCOORD_0" : 2
                    },
                    "indices" : 3,
                    "material" : 0
                },
                {
                    "attributes" : {
                        "POSITION" : 4,
                        "NORMAL" : 5,
                        "TEXCOORD_0" : 6
                    },
                    "indices" : 7,
                    "material" : 1
                }
            ]
        }
    ],
    "accessors" : [
        {
            "bufferView" : 0,
            "componentType" : 5126,
            "count" : 514,
            "max" : [
                0.4536319077014923,
                1.1400879621505737,
                0.4186058044433594
            ],
            "min" : [
                -0.4637114107608795,
                -0.5365064144134521,
                -0.2702353000640869
            ],
            "type" : "VEC3"
        },
        {
            "bufferView" : 1,
            "componentType" : 5126,
            "count" : 514,
            "type" : "VEC3"
        },
        {
            "bufferView" : 2,
            "componentType" : 5126,
            "count" : 514,
            "type" : "VEC2"
        },
        {
            "bufferView" : 3,
            "componentType" : 5123,
            "count" : 564,
            "type" : "SCALAR"
        },
        {
            "bufferView" : 4,
            "componentType" : 5126,
            "count" : 144,
            "max" : [
                0.09275820851325989,
                -0.3318032920360565,
                -0.26960110664367676
            ],
            "min" : [
                -0.0753057599067688,
                -0.5365062952041626,
                -0.3930633068084717
            ],
            "type" : "VEC3"
        },
        {
            "bufferView" : 5,
            "componentType" : 5126,
            "count" : 144,
            "type" : "VEC3"
        },
        {
            "bufferView" : 6,
            "componentType" : 5126,
            "count" : 144,
            "type" : "VEC2"
        },
        {
            "bufferView" : 7,
            "componentType" : 5123,
            "count" : 150,
            "type" : "SCALAR"
        }
    ],
    "bufferViews" : [
        {
            "buffer" : 0,
            "byteLength" : 6168,
            "byteOffset" : 0
        },
        {
            "buffer" : 0,
            "byteLength" : 6168,
            "byteOffset" : 6168
        },
        {
            "buffer" : 0,
            "byteLength" : 4112,
            "byteOffset" : 12336
        },
        {
            "buffer" : 0,
            "byteLength" : 1128,
            "byteOffset" : 16448
        },
        {
            "buffer" : 0,
            "byteLength" : 1728,
            "byteOffset" : 17576
        },
        {
            "buffer" : 0,
            "byteLength" : 1728,
            "byteOffset" : 19304
        },
        {
            "buffer" : 0,
            "byteLength" : 1152,
            "byteOffset" : 21032
        },
        {
            "buffer" : 0,
            "byteLength" : 300,
            "byteOffset" : 22184
        }
    ],
    "buffers" : [
        {
            "byteLength" : 22484,
            "uri" : "data:application/octet-stream;base64,"
        }
    ]
}
