{
    "asset" : {
        "generator" : "Khronos glTF Blender I/O v1.1.45",
        "version" : "2.0"
    },
    "scene" : 0,
    "scenes" : [
        {
            "name" : "Scene",
            "nodes" : [
                3
            ]
        }
    ],
    "nodes" : [
        {
            "mesh" : 0,
            "name" : "node_MeshObject247601472-PolyPaper17"
        },
        {
            "children" : [
                0
            ],
            "name" : "Node.002",
            "translation" : [
                2.2180564403533936,
                2.8747286796569824,
                1.199709415435791
            ]
        },
        {
            "children" : [
                1
            ],
            "name" : "Node.001",
            "translation" : [
                -2.2180564403533936,
                -2.8747286796569824,
                -1.199709415435791
            ]
        },
        {
            "children" : [
                2
            ],
            "name" : "Node",
            "rotation" : [
                0.7071068286895752,
                0,
                0,
                0.7071067094802856
            ]
        }
    ],
    "materials" : [
        {
            "emissiveFactor" : [
                0,
                0,
                0
            ],
            "name" : "BlocksPaper_COLOR_0",
            "pbrMetallicRoughness" : {
                "metallicFactor" : 0,
                "roughnessFactor" : 0.6000000238418579
            }
        }
    ],
    "meshes" : [
        {
            "name" : "mesh_m0-PolyPaper17_-407246",
            "primitives" : [
                {
                    "attributes" : {
                        "POSITION" : 0,
                        "NORMAL" : 1,
                        "COLOR_0" : 2
                    },
                    "indices" : 3,
                    "material" : 0
                }
            ]
        }
    ],
    "accessors" : [
        {
            "bufferView" : 0,
            "componentType" : 5126,
            "count" : 14798,
            "max" : [
                0.85673588514328,
                -1.1611016988754272,
                2.2239632606506348
            ],
            "min" : [
                -4.79000186920166,
                -4.569973945617676,
                -5.000011920928955
            ],
            "type" : "VEC3"
        },
        {
            "bufferView" : 1,
            "componentType" : 5126,
            "count" : 14798,
            "type" : "VEC3"
        },
        {
            "bufferView" : 2,
            "componentType" : 5126,
            "count" : 14798,
            "type" : "VEC4"
        },
        {
            "bufferView" : 3,
            "componentType" : 5123,
            "count" : 14808,
            "type" : "SCALAR"
        }
    ],
    "bufferViews" : [
        {
            "buffer" : 0,
            "byteLength" : 177576,
            "byteOffset" : 0
        },
        {
            "buffer" : 0,
            "byteLength" : 177576,
            "byteOffset" : 177576
        },
        {
            "buffer" : 0,
            "byteLength" : 236768,
            "byteOffset" : 355152
        },
        {
            "buffer" : 0,
            "byteLength" : 29616,
            "byteOffset" : 591920
        }
    ],
    "buffers" : [
        {
            "byteLength" : 621536,
            "uri" : "data:application/octet-stream;base64,"
        }
    ]
}
