{
    "asset" : {
        "generator" : "Khronos glTF Blender I/O v1.1.45",
        "version" : "2.0"
    },
    "scene" : 0,
    "scenes" : [
        {
            "name" : "Scene",
            "nodes" : [
                3
            ]
        }
    ],
    "nodes" : [
        {
            "mesh" : 0,
            "name" : "node_MeshObject-725909632-PolyPaper17"
        },
        {
            "children" : [
                0
            ],
            "name" : "Node.002",
            "translation" : [
                0.627480149269104,
                0.6276042461395264,
                0.9766414761543274
            ]
        },
        {
            "children" : [
                1
            ],
            "name" : "Node.001",
            "translation" : [
                -0.627480149269104,
                -0.6276042461395264,
                -0.9766414761543274
            ]
        },
        {
            "children" : [
                2
            ],
            "name" : "Node",
            "rotation" : [
                0.7071068286895752,
                0,
                0,
                0.7071067094802856
            ]
        }
    ],
    "materials" : [
        {
            "emissiveFactor" : [
                0,
                0,
                0
            ],
            "name" : "BlocksPaper_COLOR_0",
            "pbrMetallicRoughness" : {
                "metallicFactor" : 0,
                "roughnessFactor" : 0.6000000238418579
            }
        }
    ],
    "meshes" : [
        {
            "name" : "mesh_m0-PolyPaper17_-678542",
            "primitives" : [
                {
                    "attributes" : {
                        "POSITION" : 0,
                        "NORMAL" : 1,
                        "COLOR_0" : 2
                    },
                    "indices" : 3,
                    "material" : 0
                }
            ]
        }
    ],
    "accessors" : [
        {
            "bufferView" : 0,
            "componentType" : 5126,
            "count" : 1874,
            "max" : [
                -0.20218095183372498,
                -0.1700240820646286,
                -0.6655637621879578
            ],
            "min" : [
                -1.064997673034668,
                -1.0280933380126953,
                -1.2627532482147217
            ],
            "type" : "VEC3"
        },
        {
            "bufferView" : 1,
            "componentType" : 5126,
            "count" : 1874,
            "type" : "VEC3"
        },
        {
            "bufferView" : 2,
            "componentType" : 5126,
            "count" : 1874,
            "type" : "VEC4"
        },
        {
            "bufferView" : 3,
            "componentType" : 5123,
            "count" : 1920,
            "type" : "SCALAR"
        }
    ],
    "bufferViews" : [
        {
            "buffer" : 0,
            "byteLength" : 22488,
            "byteOffset" : 0
        },
        {
            "buffer" : 0,
            "byteLength" : 22488,
            "byteOffset" : 22488
        },
        {
            "buffer" : 0,
            "byteLength" : 29984,
            "byteOffset" : 44976
        },
        {
            "buffer" : 0,
            "byteLength" : 3840,
            "byteOffset" : 74960
        }
    ],
    "buffers" : [
        {
            "byteLength" : 78800,
            "uri" : "data:application/octet-stream;base64,"
        }
    ]
}
