{
    "asset" : {
        "generator" : "Khronos glTF Blender I/O v1.1.45",
        "version" : "2.0"
    },
    "scene" : 0,
    "scenes" : [
        {
            "name" : "Scene",
            "nodes" : [
                0
            ]
        }
    ],
    "nodes" : [
        {
            "mesh" : 0,
            "name" : "node_MeshObject96883712-PolyPaper17",
            "translation" : [
                0.9199999570846558,
                0,
                0
            ]
        }
    ],
    "materials" : [
        {
            "emissiveFactor" : [
                0,
                0,
                0
            ],
            "name" : "BlocksPaper_COLOR_0.002",
            "pbrMetallicRoughness" : {
                "metallicFactor" : 0,
                "roughnessFactor" : 0.6000000238418579
            }
        }
    ],
    "meshes" : [
        {
            "name" : "mesh_m0-PolyPaper17_-397212.001",
            "primitives" : [
                {
                    "attributes" : {
                        "POSITION" : 0,
                        "NORMAL" : 1,
                        "COLOR_0" : 2
                    },
                    "indices" : 3,
                    "material" : 0
                }
            ]
        }
    ],
    "accessors" : [
        {
            "bufferView" : 0,
            "componentType" : 5126,
            "count" : 852,
            "max" : [
                -0.8619611263275146,
                0.0328042209148407,
                0.0390051007270813
            ],
            "min" : [
                -0.9760630130767822,
                -0.019681483507156372,
                -0.014946162700653076
            ],
            "type" : "VEC3"
        },
        {
            "bufferView" : 1,
            "componentType" : 5126,
            "count" : 852,
            "type" : "VEC3"
        },
        {
            "bufferView" : 2,
            "componentType" : 5126,
            "count" : 852,
            "type" : "VEC4"
        },
        {
            "bufferView" : 3,
            "componentType" : 5123,
            "count" : 936,
            "type" : "SCALAR"
        }
    ],
    "bufferViews" : [
        {
            "buffer" : 0,
            "byteLength" : 10224,
            "byteOffset" : 0
        },
        {
            "buffer" : 0,
            "byteLength" : 10224,
            "byteOffset" : 10224
        },
        {
            "buffer" : 0,
            "byteLength" : 13632,
            "byteOffset" : 20448
        },
        {
            "buffer" : 0,
            "byteLength" : 1872,
            "byteOffset" : 34080
        }
    ],
    "buffers" : [
        {
            "byteLength" : 35952,
            "uri" : "data:application/octet-stream;base64,"
        }
    ]
}
