{
  "accessors": [
    {
      "bufferView": 1,
      "componentType": 5126,
      "count": 1538,
      "max": [
        1,
        1,
        1
      ],
      "min": [
        -1,
        -1,
        -1
      ],
      "type": "VEC3"
    },
    {
      "bufferView": 1,
      "byteOffset": 18456,
      "componentType": 5126,
      "count": 1538,
      "max": [
        1,
        1,
        1
      ],
      "min": [
        -1,
        -1,
        -1
      ],
      "type": "VEC3"
    },
    {
      "bufferView": 0,
      "componentType": 5125,
      "count": 9216,
      "max": [
        1537
      ],
      "min": [
        0
      ],
      "type": "SCALAR"
    },
    {
      "bufferView": 1,
      "byteOffset": 36912,
      "componentType": 5126,
      "count": 6146,
      "max": [
        1,
        1,
        1
      ],
      "min": [
        -1,
        -1,
        -1
      ],
      "type": "VEC3"
    },
    {
      "bufferView": 1,
      "byteOffset": 110664,
      "componentType": 5126,
      "count": 6146,
      "max": [
        1,
        1,
        1
      ],
      "min": [
        -1,
        -1,
        -1
      ],
      "type": "VEC3"
    },
    {
      "bufferView": 0,
      "byteOffset": 36864,
      "componentType": 5125,
      "count": 36864,
      "max": [
        6145
      ],
      "min": [
        0
      ],
      "type": "SCALAR"
    },
    {
      "bufferView": 1,
      "byteOffset": 184416,
      "componentType": 5126,
      "count": 6725,
      "max": [
        1.0000004768371582,
        1.0000003576278687,
        4.0918083190917969
      ],
      "min": [
        -1.0000002384185791,
        -1.0000003576278687,
        -1
      ],
      "type": "VEC3"
    },
    {
      "bufferView": 1,
      "byteOffset": 265116,
      "componentType": 5126,
      "count": 6725,
      "max": [
        1,
        1,
        1
      ],
      "min": [
        -1,
        -1,
        -1
      ],
      "type": "VEC3"
    },
    {
      "bufferView": 0,
      "byteOffset": 184320,
      "componentType": 5125,
      "count": 40338,
      "max": [
        6724
      ],
      "min": [
        0
      ],
      "type": "SCALAR"
    },
    {
      "bufferView": 1,
      "byteOffset": 345816,
      "componentType": 5126,
      "count": 1538,
      "max": [
        1,
        1,
        1
      ],
      "min": [
        -1,
        -1,
        -1
      ],
      "type": "VEC3"
    },
    {
      "bufferView": 1,
      "byteOffset": 364272,
      "componentType": 5126,
      "count": 1538,
      "max": [
        1,
        1,
        1
      ],
      "min": [
        -1,
        -1,
        -1
      ],
      "type": "VEC3"
    },
    {
      "bufferView": 0,
      "byteOffset": 345672,
      "componentType": 5125,
      "count": 9216,
      "max": [
        1537
      ],
      "min": [
        0
      ],
      "type": "SCALAR"
    },
    {
      "bufferView": 1,
      "byteOffset": 382728,
      "componentType": 5126,
      "count": 4225,
      "max": [
        0.92465537786483765,
        0.90341579914093018,
        -0.033454537391662598
      ],
      "min": [
        -0.90000087022781372,
        -0.78903138637542725,
        -0.91179090738296509
      ],
      "type": "VEC3"
    },
    {
      "bufferView": 1,
      "byteOffset": 433428,
      "componentType": 5126,
      "count": 4225,
      "max": [
        0.99996984004974365,
        0.84510982036590576,
        1
      ],
      "min": [
        -0.99999833106994629,
        -0.99999606609344482,
        -0.51305264234542847
      ],
      "type": "VEC3"
    },
    {
      "bufferView": 0,
      "byteOffset": 382536,
      "componentType": 5125,
      "count": 24576,
      "max": [
        4224
      ],
      "min": [
        0
      ],
      "type": "SCALAR"
    }
  ],
  "asset": {
    "extras": {
      "author": "DarkPixel Studios (https://sketchfab.com/SkeletonDoctor)",
      "license": "CC-BY-4.0 (http://creativecommons.org/licenses/by/4.0/)",
      "source": "https://sketchfab.com/3d-models/bed-54186aff66e2409a912cea9988ae5e11",
      "title": "Bed"
    },
    "generator": "Sketchfab-6.31.0",
    "version": "2.0"
  },
  "bufferViews": [
    {
      "buffer": 0,
      "byteLength": 480840,
      "byteOffset": 0,
      "name": "floatBufferViews",
      "target": 34963
    },
    {
      "buffer": 0,
      "byteLength": 484128,
      "byteOffset": 480840,
      "byteStride": 12,
      "name": "floatBufferViews",
      "target": 34962
    }
  ],
  "buffers": [
    {
      "byteLength": 964968,
      "uri": "scene.bin"
    }
  ],
  "extensionsRequired": [
    "KHR_materials_pbrSpecularGlossiness"
  ],
  "extensionsUsed": [
    "KHR_materials_pbrSpecularGlossiness"
  ],
  "materials": [
    {
      "doubleSided": true,
      "emissiveFactor": [
        0,
        0,
        0
      ],
      "extensions": {
        "KHR_materials_pbrSpecularGlossiness": {
          "diffuseFactor": [
            1,
            1,
            1,
            1
          ],
          "glossinessFactor": 0.042294850500000002,
          "specularFactor": [
            0,
            0,
            0
          ]
        }
      },
      "name": "Material.004"
    },
    {
      "doubleSided": true,
      "emissiveFactor": [
        0,
        0,
        0
      ],
      "extensions": {
        "KHR_materials_pbrSpecularGlossiness": {
          "diffuseFactor": [
            1,
            1,
            1,
            1
          ],
          "glossinessFactor": 0.042294850500000002,
          "specularFactor": [
            0,
            0,
            0
          ]
        }
      },
      "name": "Material.001"
    },
    {
      "doubleSided": true,
      "emissiveFactor": [
        0,
        0,
        0
      ],
      "extensions": {
        "KHR_materials_pbrSpecularGlossiness": {
          "diffuseFactor": [
            0.38754122221917503,
            0.16940942649172139,
            0.012698859738563703,
            1
          ],
          "glossinessFactor": 0.94999999999999996,
          "specularFactor": [
            0,
            0,
            0
          ]
        }
      },
      "name": "Material"
    },
    {
      "doubleSided": true,
      "emissiveFactor": [
        0,
        0,
        0
      ],
      "extensions": {
        "KHR_materials_pbrSpecularGlossiness": {
          "diffuseFactor": [
            1,
            1,
            1,
            1
          ],
          "glossinessFactor": 0.042294850500000002,
          "specularFactor": [
            0,
            0,
            0
          ]
        }
      },
      "name": "Material.003"
    },
    {
      "doubleSided": true,
      "emissiveFactor": [
        0,
        0,
        0
      ],
      "extensions": {
        "KHR_materials_pbrSpecularGlossiness": {
          "diffuseFactor": [
            0.22326244170000001,
            0.25161209670000001,
            0.52735977270000001,
            1
          ],
          "glossinessFactor": 0.5,
          "specularFactor": [
            0,
            0,
            0
          ]
        }
      },
      "name": "Material.002"
    }
  ],
  "meshes": [
    {
      "name": "Cube.002_Material.004_0",
      "primitives": [
        {
          "attributes": {
            "NORMAL": 1,
            "POSITION": 0
          },
          "indices": 2,
          "material": 0,
          "mode": 4
        }
      ]
    },
    {
      "name": "Cube.001_Material.001_0",
      "primitives": [
        {
          "attributes": {
            "NORMAL": 4,
            "POSITION": 3
          },
          "indices": 5,
          "material": 1,
          "mode": 4
        }
      ]
    },
    {
      "name": "Cube_Material_0",
      "primitives": [
        {
          "attributes": {
            "NORMAL": 7,
            "POSITION": 6
          },
          "indices": 8,
          "material": 2,
          "mode": 4
        }
      ]
    },
    {
      "name": "Cube.003_Material.003_0",
      "primitives": [
        {
          "attributes": {
            "NORMAL": 10,
            "POSITION": 9
          },
          "indices": 11,
          "material": 3,
          "mode": 4
        }
      ]
    },
    {
      "name": "Plane_Material.002_0",
      "primitives": [
        {
          "attributes": {
            "NORMAL": 13,
            "POSITION": 12
          },
          "indices": 14,
          "material": 4,
          "mode": 4
        }
      ]
    }
  ],
  "nodes": [
    {
      "children": [
        1
      ],
      "name": "RootNode (gltf orientation matrix)",
      "rotation": [
        -0.70710678118654746,
        -0,
        -0,
        0.70710678118654757
      ]
    },
    {
      "children": [
        2
      ],
      "name": "RootNode (model correction matrix)"
    },
    {
      "children": [
        3
      ],
      "matrix": [
        1,
        0,
        0,
        0,
        0,
        0,
        1,
        0,
        0,
        -1,
        0,
        0,
        0,
        0,
        0,
        1
      ],
      "name": "8b84aeeee23e427c9a36a7432befe563.fbx"
    },
    {
      "children": [
        4,
        7,
        9,
        11,
        13,
        15
      ],
      "name": "RootNode"
    },
    {
      "children": [
        5
      ],
      "matrix": [
        100,
        0,
        0,
        0,
        0,
        99.999999999999716,
        -7.5497901264043296e-06,
        0,
        0,
        7.5497901264043296e-06,
        99.999999999999716,
        0,
        0,
        457.603515625,
        0,
        1
      ],
      "name": "Area"
    },
    {
      "children": [
        6
      ],
      "matrix": [
        1,
        0,
        0,
        0,
        0,
        2.2204460492503131e-16,
        1,
        0,
        0,
        -1,
        2.2204460492503131e-16,
        0,
        0,
        0,
        0,
        1
      ],
      "name": ""
    },
    {
      "name": ""
    },
    {
      "children": [
        8
      ],
      "matrix": [
        70.269953076486161,
        -3.7188036808491625e-07,
        -7.7271266115420092,
        0,
        -4.3091129989727097,
        -1.7004289303346377e-06,
        -39.186774523248282,
        0,
        7.1383743448762152e-09,
        13.879455566406236,
        -6.0305519195527526e-07,
        0,
        -74.136116027832031,
        81.034561157226562,
        -150.72911071777344,
        1
      ],
      "name": "Cube.002"
    },
    {
      "mesh": 0,
      "name": "Cube.002_Material.004_0"
    },
    {
      "children": [
        10
      ],
      "matrix": [
        148.55516052246094,
        0,
        0,
        0,
        0,
        -3.4489529220732376e-05,
        -211.69522094726284,
        0,
        0,
        17.667482376098398,
        -2.8783982318571972e-06,
        0,
        0,
        50.803642272949219,
        26.742263793945312,
        1
      ],
      "name": "Cube.001"
    },
    {
      "mesh": 1,
      "name": "Cube.001_Material.001_0"
    },
    {
      "children": [
        12
      ],
      "matrix": [
        165.40911865234375,
        0,
        0,
        0,
        0,
        -4.1748632915828383e-05,
        -256.25128173827784,
        0,
        0,
        45.311893463134169,
        -7.3822444675442007e-06,
        0,
        0,
        0,
        0,
        1
      ],
      "name": "Cube"
    },
    {
      "mesh": 2,
      "name": "Cube_Material_0"
    },
    {
      "children": [
        14
      ],
      "matrix": [
        70.606856523195901,
        0,
        3.4995146742363099,
        0,
        1.9515409713000813,
        -1.7232334781481278e-06,
        -39.374652255113986,
        0,
        3.0032757932426422e-08,
        13.879455566406238,
        -6.0594648964329184e-07,
        0,
        88.741874694824219,
        81.034561157226562,
        -150.72911071777344,
        1
      ],
      "name": "Cube.003"
    },
    {
      "mesh": 3,
      "name": "Cube.003_Material.003_0"
    },
    {
      "children": [
        16
      ],
      "matrix": [
        180.16744995117188,
        0,
        0,
        0,
        0,
        -3.9072068598220279e-05,
        -239.82264709472341,
        0,
        0,
        109.60873413085793,
        -1.7857529431878229e-05,
        0,
        0,
        102.24531555175781,
        59.249122619628906,
        1
      ],
      "name": "Plane"
    },
    {
      "mesh": 4,
      "name": "Plane_Material.002_0"
    }
  ],
  "scene": 0,
  "scenes": [
    {
      "name": "OSG_Scene",
      "nodes": [
        0
      ]
    }
  ]
}

